# Blender v2.93.5 OBJ File: 'storefront.blend'
# www.blender.org
mtllib bench.mtl
o Cube.003
v 0.109894 0.585677 1.060496
v -0.000841 0.585677 0.706923
v 0.221335 0.585677 0.707144
v -0.423519 0.775249 1.483084
v -0.424120 0.756533 1.485890
v 0.420887 0.756533 1.486730
v 0.420292 0.775249 1.483924
v -0.406424 0.688383 -1.438518
v -0.419261 0.739263 -1.480846
v 0.421931 0.739263 -1.480009
v 0.409010 0.688383 -1.437707
v 0.452755 0.688383 -1.298281
v 0.465678 0.739263 -1.340583
v 0.463010 0.739263 1.341507
v 0.450170 0.688383 1.299180
v 0.419204 0.781374 1.479998
v -0.422424 0.781374 1.479161
v 0.419583 0.897612 -1.210393
v 0.324639 0.954525 -0.981656
v 0.322685 0.954525 0.982300
v 0.417174 0.897612 1.211225
v 0.268844 0.961587 -1.093259
v -0.266944 0.961586 -1.093792
v -0.269120 0.961586 1.093258
v 0.266669 0.961587 1.093791
v 0.455568 0.806406 1.317271
v 0.463294 0.781374 1.340534
v 0.465960 0.781374 -1.339610
v 0.458188 0.806406 -1.316362
v -0.414608 0.806406 1.456004
v 0.411434 0.806406 1.456825
v 0.414332 0.806406 -1.456004
v 0.422148 0.781374 -1.479161
v -0.419480 0.781374 -1.479999
v -0.411710 0.806406 -1.456826
v -0.446080 0.839063 1.281388
v -0.419859 0.897612 1.210393
v -0.417450 0.897612 -1.211226
v -0.443529 0.839063 -1.282273
v 0.399067 0.839063 1.421938
v 0.372917 0.897612 1.351031
v -0.375880 0.897612 1.350286
v -0.402171 0.839063 1.421141
v 0.445804 0.839063 -1.281388
v 0.443254 0.839063 1.282273
v -0.390352 0.585677 1.413459
v -0.390352 0.010045 1.413459
v -0.334807 0.010045 1.413514
v -0.334807 0.585677 1.413514
v 0.390076 0.585677 -1.413459
v 0.334532 0.585677 -1.413514
v 0.223445 0.585677 -1.413625
v 0.112356 0.585677 -1.413735
v 0.001269 0.585677 -1.413846
v -0.109818 0.585677 -1.413956
v -0.220907 0.585677 -1.414067
v -0.331994 0.585677 -1.414177
v -0.387539 0.585677 -1.414233
v -0.223720 0.585677 1.413625
v -0.112631 0.585677 1.413735
v -0.001544 0.585677 1.413846
v 0.109543 0.585677 1.413956
v 0.220632 0.585677 1.414067
v 0.331719 0.585677 1.414177
v 0.387263 0.585677 1.414232
v 0.112004 0.585677 -1.060275
v -0.390000 0.585677 1.059999
v -0.445191 0.585677 0.706481
v -0.334455 0.585677 1.060054
v 0.334180 0.585677 -1.060054
v 0.334356 0.585677 -1.236783
v 0.222742 0.585677 -0.706702
v 0.444915 0.585677 -0.706481
v -0.334631 0.585677 1.236783
v -0.110170 0.585677 -1.060496
v -0.221610 0.585677 -0.707144
v -0.332346 0.585677 -1.060717
v -0.443784 0.585677 -0.707365
v 0.000566 0.585677 -0.706923
v -0.222314 0.585677 -0.000221
v -0.000138 0.585677 -0.000000
v 0.222038 0.585677 0.000221
v 0.444212 0.585677 0.000442
v 0.443509 0.585677 0.707365
v -0.444487 0.585677 -0.000442
v 0.332070 0.585677 1.060717
v -0.112279 0.585677 1.060275
v 0.442981 0.585677 1.237556
v 0.445443 0.585677 -1.236673
v 0.331894 0.585677 1.237446
v 0.387439 0.585677 1.237501
v -0.390176 0.585677 1.236727
v -0.445718 0.585677 1.236672
v -0.223017 0.585677 0.706702
v -0.387890 0.585677 -1.060773
v -0.332170 0.585677 -1.237446
v -0.332170 0.010045 -1.237446
v -0.331994 0.010045 -1.414177
v 0.389901 0.585677 -1.236728
v -0.443081 0.585677 -1.414288
v -0.443081 0.010045 -1.414288
v -0.443256 0.010045 -1.237557
v -0.443257 0.585677 -1.237557
v 0.445443 0.010046 -1.236673
v 0.445619 0.010046 -1.413404
v 0.445619 0.585677 -1.413404
v 0.442981 0.010046 1.237556
v 0.387439 0.010046 1.237501
v -0.387538 0.010045 -1.414233
v 0.334532 0.010046 -1.413514
v 0.334356 0.010046 -1.236783
v -0.445894 0.662719 1.413404
v -0.445894 0.585677 1.413404
v 0.442805 0.585677 1.414288
v 0.442805 0.662719 1.414288
v 0.398925 0.670052 1.414244
v -0.402013 0.670052 1.413447
v 0.442944 0.670052 1.274903
v 0.445480 0.670052 -1.274019
v -0.373192 0.897612 -1.351031
v 0.375604 0.897612 -1.350286
v -0.387714 0.585677 -1.237501
v 0.331894 0.010046 1.237446
v 0.401738 0.670052 -1.413447
v -0.399200 0.670052 -1.414244
v -0.387714 0.010045 -1.237501
v 0.389901 0.010046 -1.236728
v 0.390076 0.010046 -1.413459
v 0.387263 0.010046 1.414232
v 0.331719 0.010046 1.414177
v 0.442805 0.010046 1.414288
v -0.445894 0.010045 1.413404
v -0.445718 0.010045 1.236672
v -0.390176 0.010045 1.236727
v -0.334631 0.010045 1.236783
v -0.399342 0.839063 -1.421938
v 0.401895 0.839063 -1.421141
v -0.420568 0.775249 -1.483924
v 0.423244 0.775249 -1.483085
v -0.324914 0.954525 0.981656
v -0.322960 0.954525 -0.982300
v -0.467298 0.775249 1.343598
v -0.466236 0.781374 1.339609
v -0.463569 0.781374 -1.340534
v -0.464623 0.775249 -1.344525
v 0.445619 0.662719 -1.413404
v -0.443081 0.662719 -1.414288
v -0.453030 0.688383 1.298281
v -0.450446 0.688383 -1.299180
v -0.443219 0.670052 -1.274903
v -0.445755 0.670052 1.274019
v -0.465954 0.739263 1.340583
v -0.463285 0.739263 -1.341507
v 0.423845 0.756533 -1.485890
v -0.421163 0.756533 -1.486730
v 0.406149 0.688383 1.438518
v 0.418985 0.739263 1.480845
v -0.422207 0.739263 1.480009
v -0.409285 0.688383 1.437707
v -0.465199 0.756533 -1.347373
v -0.467879 0.756533 1.346444
v 0.464924 0.756533 1.347372
v 0.467604 0.756533 -1.346445
v 0.464348 0.775249 1.344525
v 0.467022 0.775249 -1.343598
v -0.455843 0.806406 -1.317272
v -0.458463 0.806406 1.316362
vt 0.535594 0.313283
vt 0.550348 0.355483
vt 0.523921 0.356606
vt 0.768555 0.017629
vt 0.773627 0.017469
vt 0.773628 0.243961
vt 0.768554 0.243800
vt 0.797140 0.482247
vt 0.779403 0.485699
vt 0.779403 0.260230
vt 0.797140 0.263682
vt 0.891567 0.374839
vt 0.883656 0.381505
vt 0.883713 0.043004
vt 0.891644 0.049630
vt 0.764612 0.243482
vt 0.764607 0.018186
vt 0.851128 0.359799
vt 0.836693 0.327274
vt 0.836762 0.096810
vt 0.851144 0.064561
vt 0.290594 0.118796
vt 0.435125 0.118796
vt 0.435125 0.708757
vt 0.290594 0.708757
vt 0.866113 0.047975
vt 0.871959 0.043455
vt 0.871879 0.380964
vt 0.866014 0.376384
vt 0.755477 0.020273
vt 0.755482 0.241396
vt 0.756363 0.262522
vt 0.765493 0.260436
vt 0.765498 0.485731
vt 0.756367 0.483645
vt 0.932940 0.370505
vt 0.924161 0.359799
vt 0.924177 0.064561
vt 0.933044 0.053824
vt 0.742692 0.238076
vt 0.718081 0.231058
vt 0.718077 0.030612
vt 0.742687 0.023593
vt 0.859907 0.370505
vt 0.860011 0.053824
vt 0.568088 0.881630
vt 0.723365 0.881630
vt 0.723365 0.896614
vt 0.568088 0.896614
vt 0.507906 0.611653
vt 0.516631 0.611105
vt 0.526955 0.610815
vt 0.541845 0.610672
vt 0.556097 0.610503
vt 0.570464 0.610832
vt 0.584861 0.610641
vt 0.599133 0.610948
vt 0.628644 0.612094
vt 0.588132 0.268130
vt 0.581459 0.268726
vt 0.574770 0.269090
vt 0.561298 0.269586
vt 0.547881 0.270081
vt 0.534390 0.270110
vt 0.520858 0.270605
vt 0.507486 0.270629
vt 0.480757 0.270215
vt 0.541960 0.566572
vt 0.595872 0.311710
vt 0.603210 0.354105
vt 0.589180 0.311826
vt 0.514583 0.567617
vt 0.514729 0.591130
vt 0.527873 0.522782
vt 0.500947 0.522412
vt 0.588346 0.268822
vt 0.588772 0.290420
vt 0.569717 0.565854
vt 0.581750 0.521356
vt 0.597566 0.564926
vt 0.608544 0.519610
vt 0.554817 0.522371
vt 0.579185 0.437965
vt 0.552598 0.438664
vt 0.526019 0.439303
vt 0.499434 0.439808
vt 0.497623 0.358212
vt 0.605794 0.437223
vt 0.508682 0.314231
vt 0.562445 0.312477
vt 0.493905 0.292604
vt 0.499830 0.591238
vt 0.508000 0.292247
vt 0.500975 0.292403
vt 0.595507 0.290308
vt 0.602241 0.290202
vt 0.576814 0.354673
vt 0.604557 0.564553
vt 0.000360 0.833460
vt 0.155638 0.833460
vt 0.155638 0.881134
vt 0.000360 0.881134
vt 0.598446 0.587699
vt 0.507286 0.591194
vt 0.839807 0.725732
vt 0.839807 0.881010
vt 0.792133 0.881010
vt 0.792133 0.725732
vt 0.568088 0.818254
vt 0.723365 0.818254
vt 0.723365 0.865927
vt 0.568088 0.865927
vt 0.312004 0.988507
vt 0.312004 0.833229
vt 0.326987 0.833229
vt 0.326987 0.988507
vt 0.568088 0.912317
vt 0.723365 0.912317
vt 0.723365 0.927300
vt 0.568088 0.927300
vt 0.791413 0.725732
vt 0.791413 0.881010
vt 0.743739 0.881010
vt 0.743739 0.725732
vt 0.226064 0.701241
vt 0.237624 0.710883
vt 0.224881 0.719959
vt 0.068273 0.717946
vt 0.055858 0.709673
vt 0.066785 0.700151
vt 0.073804 0.700804
vt 0.218817 0.702047
vt 0.896702 0.055567
vt 0.896644 0.368809
vt 0.718967 0.473307
vt 0.648036 0.444798
vt 0.648033 0.301373
vt 0.718963 0.272862
vt 0.605755 0.587419
vt 0.743739 0.943103
vt 0.899017 0.943103
vt 0.899017 0.958086
vt 0.743739 0.958086
vt 0.805292 0.265624
vt 0.805292 0.480304
vt 0.048754 0.896837
vt 0.048754 0.881854
vt 0.096428 0.881854
vt 0.096428 0.896837
vt 0.000360 0.896837
vt 0.000360 0.881854
vt 0.048034 0.881854
vt 0.048034 0.896837
vt 0.000360 0.911820
vt 0.048034 0.911820
vt 0.918887 0.866027
vt 0.918887 0.881010
vt 0.871213 0.881010
vt 0.871213 0.866027
vt 0.918887 0.851044
vt 0.871213 0.851044
vt 0.144822 0.896837
vt 0.144822 0.911820
vt 0.097148 0.911820
vt 0.097148 0.896837
vt 0.144822 0.881854
vt 0.097148 0.881854
vt 0.048754 0.911820
vt 0.096428 0.911820
vt 0.568088 0.866648
vt 0.723365 0.866648
vt 0.743739 0.912417
vt 0.899017 0.912417
vt 0.899017 0.927400
vt 0.743739 0.927400
vt 0.743739 0.881730
vt 0.899017 0.881730
vt 0.899017 0.896713
vt 0.743739 0.896713
vt 0.855510 0.881010
vt 0.855510 0.725732
vt 0.870493 0.725732
vt 0.870493 0.881010
vt 0.568088 0.928020
vt 0.723365 0.928020
vt 0.723365 0.943004
vt 0.568088 0.943003
vt 0.499181 0.612201
vt 0.493500 0.521777
vt 0.502225 0.521229
vt 0.510950 0.520681
vt 0.899017 0.942383
vt 0.743739 0.942383
vt 0.899017 0.911696
vt 0.743739 0.911696
vt 0.493210 0.917260
vt 0.493210 0.761982
vt 0.540884 0.761982
vt 0.540884 0.917260
vt 0.840527 0.881010
vt 0.840527 0.725732
vt 0.568088 0.897334
vt 0.723365 0.897334
vt 0.444816 0.917260
vt 0.444816 0.761982
vt 0.492490 0.761982
vt 0.492490 0.917260
vt 0.204752 0.988738
vt 0.204752 0.833460
vt 0.252426 0.833460
vt 0.252426 0.988738
vt 0.156358 0.988738
vt 0.156358 0.833460
vt 0.204032 0.833460
vt 0.204032 0.988738
vt 0.723365 0.957986
vt 0.568088 0.957986
vt 0.613129 0.587081
vt 0.603509 0.274470
vt 0.743577 0.480325
vt 0.743573 0.265842
vt 0.769440 0.486050
vt 0.769440 0.259879
vt 0.909726 0.327274
vt 0.909796 0.096810
vt 0.647150 0.202549
vt 0.647148 0.059124
vt 0.946736 0.382036
vt 0.944913 0.380964
vt 0.944992 0.043455
vt 0.946809 0.042396
vt 0.062688 0.132491
vt 0.051406 0.121587
vt 0.065423 0.113141
vt 0.226692 0.130743
vt 0.238363 0.139675
vt 0.227156 0.148502
vt 0.220290 0.147556
vt 0.070201 0.132231
vt 0.964600 0.374839
vt 0.964677 0.049630
vt 0.969736 0.055567
vt 0.969678 0.368810
vt 0.247399 0.174616
vt 0.247399 0.673866
vt 0.229863 0.678538
vt 0.230199 0.169847
vt 0.044773 0.673742
vt 0.039078 0.159482
vt 0.057140 0.155239
vt 0.062631 0.678066
vt 0.956690 0.381505
vt 0.956747 0.043004
vt 0.774513 0.259718
vt 0.774513 0.486210
vt 0.796255 0.239997
vt 0.778517 0.243450
vt 0.778517 0.017981
vt 0.796255 0.021433
vt 0.951849 0.041666
vt 0.951785 0.382807
vt 0.878815 0.041665
vt 0.878751 0.382807
vt 0.873776 0.042396
vt 0.873702 0.382036
vt 0.939146 0.047975
vt 0.939047 0.376384
vt 0.275394 0.678667
vt 0.275394 0.148886
vt 0.450325 0.148885
vt 0.450325 0.678667
vt 0.916647 0.382986
vt 0.901191 0.342220
vt 0.828294 0.081964
vt 0.843762 0.041337
vt 0.828158 0.342220
vt 0.843614 0.382986
vt 0.916795 0.041337
vt 0.901327 0.081964
vt 0.954624 0.007111
vt 0.969317 0.016905
vt 0.896263 0.407689
vt 0.881452 0.417488
vt 0.896283 0.016905
vt 0.881590 0.007111
vt 0.954485 0.417488
vt 0.969296 0.407689
vt 0.900781 0.022144
vt 0.973815 0.402420
vt 0.900781 0.402420
vt 0.973815 0.022144
vt 0.876991 0.418529
vt 0.872338 0.417665
vt 0.945546 0.006909
vt 0.950183 0.006062
vt 0.877150 0.006062
vt 0.872513 0.006909
vt 0.945371 0.417666
vt 0.950025 0.418529
vt 0.870758 0.416742
vt 0.870937 0.007823
vt 0.943791 0.416743
vt 0.943971 0.007823
vt 0.863547 0.410295
vt 0.854912 0.400504
vt 0.928139 0.023922
vt 0.936769 0.014220
vt 0.863735 0.014220
vt 0.855106 0.023922
vt 0.927945 0.400504
vt 0.936581 0.410295
vt 0.804406 0.023375
vt 0.804406 0.238055
vn 0.0000 -1.0000 -0.0000
vn -0.0010 0.1483 0.9889
vn 0.0008 -0.6394 -0.7689
vn 0.9694 -0.2454 0.0010
vn -0.0008 0.5395 0.8420
vn 0.5150 0.8572 0.0005
vn -0.0000 1.0000 0.0000
vn 0.9553 0.2957 0.0010
vn -0.0007 0.6792 0.7339
vn 0.0007 0.6792 -0.7339
vn -0.9131 0.4078 -0.0009
vn -0.0006 0.7710 0.6369
vn 0.9131 0.4078 0.0009
vn -0.0010 -0.0000 1.0000
vn -0.0000 0.0031 -1.0000
vn 0.2432 0.4356 -0.8667
vn 0.0002 0.5143 -0.8576
vn 0.0275 0.4916 0.8704
vn -0.0289 0.4915 0.8704
vn -0.0005 0.6528 -0.7575
vn -0.0000 0.0032 -1.0000
vn -0.0000 0.0010 -1.0000
vn 0.2435 0.4341 -0.8674
vn 0.0002 0.5132 -0.8583
vn -0.0276 -0.5100 -0.8598
vn 0.0291 -0.5099 -0.8597
vn -0.0005 0.6517 -0.7585
vn -0.0000 0.0009 -1.0000
vn 0.0009 -1.0000 -0.0015
vn -0.0000 -1.0000 -0.0015
vn 0.0010 -1.0000 -0.0015
vn 1.0000 0.0000 0.0010
vn -1.0000 -0.0000 -0.0010
vn 0.0010 0.0000 -1.0000
vn 0.9299 -0.3678 0.0009
vn 0.0002 0.9704 -0.2414
vn 0.0006 -0.7979 -0.6027
vn -0.0005 -1.0000 0.0008
vn 0.0000 -1.0000 0.0008
vn -0.0006 -1.0000 0.0008
vn 0.0006 0.7710 -0.6369
vn 0.0008 0.5395 -0.8420
vn -0.5150 0.8572 -0.0005
vn -0.0002 0.9704 0.2414
vn -0.9854 0.1702 -0.0010
vn -0.9299 -0.3678 -0.0009
vn -0.9694 -0.2454 -0.0010
vn 0.0009 -0.3224 -0.9466
vn -0.0008 -0.6394 0.7689
vn -0.9939 -0.1105 -0.0010
vn 0.9939 -0.1105 0.0010
vn -0.0009 -0.3224 0.9466
vn 0.9354 0.3537 0.0009
vn -0.9995 0.0309 -0.0010
vn 0.0010 0.1483 -0.9889
vn 0.9995 0.0309 0.0010
vn -0.9553 0.2957 -0.0010
vn -0.9354 0.3537 -0.0009
vn 0.0007 0.7299 -0.6835
vn -0.0007 0.7299 0.6835
vn 0.9854 0.1702 0.0010
vn 0.1645 0.9850 0.0520
vn -0.1647 0.9850 0.0517
vn 0.1647 0.9850 -0.0517
vn -0.1645 0.9850 -0.0520
vn 0.1253 0.9921 0.0001
vn -0.1253 0.9921 -0.0001
vn -0.3212 0.9416 0.1010
vn 0.3210 0.9416 0.1016
vn 0.3212 0.9416 -0.1010
vn -0.3210 0.9416 -0.1016
vn -0.8559 -0.4409 -0.2704
vn 0.8564 -0.4409 -0.2687
vn 0.8559 -0.4409 0.2704
vn -0.8564 -0.4409 0.2687
vn 0.7538 -0.6125 0.2381
vn -0.7543 -0.6125 0.2366
vn 0.7543 -0.6125 -0.2366
vn -0.7538 -0.6125 -0.2381
vn 0.9514 0.0751 -0.2986
vn -0.9508 0.0751 -0.3005
vn 0.9508 0.0751 0.3005
vn -0.9514 0.0751 0.2986
vn 0.8973 0.3400 -0.2817
vn 0.8967 0.3400 0.2834
vn -0.9342 -0.2035 0.2931
vn 0.9336 -0.2035 0.2950
vn 0.9342 -0.2035 -0.2931
vn -0.8973 0.3400 0.2817
vn -0.9336 -0.2035 -0.2950
vn -0.8967 0.3400 -0.2834
vn 0.7878 0.5640 -0.2475
vn -0.7873 0.5640 -0.2490
vn 0.7873 0.5640 0.2490
vn -0.7878 0.5640 0.2475
vn 0.8267 0.4983 0.2614
vn 0.8272 0.4983 -0.2597
vn -0.8267 0.4983 -0.2614
vn 0.7482 0.6204 -0.2352
vn 0.7477 0.6204 0.2366
vn -0.7477 0.6204 -0.2366
vn -0.8272 0.4983 0.2597
vn -0.7482 0.6204 0.2352
vn -0.0006 -0.7979 0.6027
usemtl Material.014
s 1
f 1/1/1 2/2/1 3/3/1
f 4/4/2 5/5/2 6/6/2 7/7/2
f 8/8/3 9/9/3 10/10/3 11/11/3
f 12/12/4 13/13/4 14/14/4 15/15/4
f 7/7/5 16/16/5 17/17/5 4/4/5
f 18/18/6 19/19/6 20/20/6 21/21/6
f 22/22/7 23/23/7 24/24/7 25/25/7
f 26/26/8 27/27/8 28/28/8 29/29/8
f 30/30/9 17/17/9 16/16/9 31/31/9
f 32/32/10 33/33/10 34/34/10 35/35/10
f 36/36/11 37/37/11 38/38/11 39/39/11
f 40/40/12 41/41/12 42/42/12 43/43/12
f 44/44/13 18/18/13 21/21/13 45/45/13
f 46/46/14 47/47/14 48/48/14 49/49/14
f 50/50/15 51/51/16 52/52/17 53/53/18 54/54/17 55/55/19 56/56/17 57/57/20 58/58/21
f 46/59/22 49/60/23 59/61/24 60/62/25 61/63/24 62/64/26 63/65/24 64/66/27 65/67/28
f 66/68/1 54/54/17 53/53/18
f 62/64/26 61/63/24 1/1/1
f 67/69/1 68/70/1 69/71/1
f 70/72/1 52/52/17 51/51/16 71/73/1
f 52/52/17 70/72/1 72/74/1 66/68/1
f 62/64/26 1/1/1 63/65/24
f 70/72/1 73/75/1 72/74/1
f 49/76/23 74/77/1 69/71/1 59/61/24
f 75/78/1 56/56/17 55/55/19
f 56/56/17 75/78/1 76/79/1 77/80/1
f 76/79/1 78/81/1 77/80/1
f 75/78/1 54/54/17 66/68/1 79/82/1
f 80/83/1 76/79/1 79/82/1 81/84/1
f 3/3/1 82/85/1 83/86/1 84/87/1
f 76/79/1 80/83/1 85/88/1 78/81/1
f 52/52/17 66/68/1 53/53/18
f 3/3/1 84/87/1 86/89/1
f 87/90/1 2/2/1 1/1/1 61/63/24
f 88/91/29 84/87/30 83/86/30 73/75/30 89/92/31
f 90/93/1 86/89/1 91/94/1
f 92/95/1 93/96/1 67/69/1
f 88/91/1 91/94/1 86/89/1 84/87/1
f 94/97/1 2/2/1 87/90/1
f 77/80/1 78/81/1 95/98/1
f 64/66/27 63/65/24 86/89/1 90/93/1
f 72/74/1 79/82/1 66/68/1
f 96/99/32 97/100/32 98/101/32 57/102/32
f 94/97/1 87/90/1 59/61/24 69/71/1
f 56/56/17 77/80/1 96/103/1 57/57/20
f 72/74/1 82/85/1 81/84/1 79/82/1
f 69/71/1 68/70/1 94/97/1
f 75/78/1 79/82/1 76/79/1
f 99/104/1 70/72/1 71/73/1
f 3/3/1 86/89/1 63/65/24 1/1/1
f 60/62/25 87/90/1 61/63/24
f 54/54/17 75/78/1 55/55/19
f 60/62/25 59/61/24 87/90/1
f 99/104/1 89/92/1 73/75/1 70/72/1
f 100/105/33 101/106/33 102/107/33 103/108/33
f 89/109/32 104/110/32 105/111/32 106/112/32
f 88/113/34 107/114/34 108/115/34 91/116/34
f 58/117/34 109/118/34 101/119/34 100/120/34
f 51/121/33 110/122/33 111/123/33 71/124/33
f 74/77/1 92/95/1 67/69/1 69/71/1
f 112/125/14 113/126/14 46/127/14 65/128/14 114/129/14 115/130/14 116/131/14 117/132/14
f 12/12/35 15/15/35 118/133/35 119/134/35
f 120/135/36 23/136/36 22/137/36 121/138/36
f 77/80/1 95/98/1 122/139/1 96/103/1
f 91/140/34 108/141/34 123/142/34 90/143/34
f 8/8/37 11/11/37 124/144/37 125/145/37
f 126/146/1 102/147/1 101/148/1 109/149/1
f 127/150/1 111/151/1 110/152/1 128/153/1
f 104/154/1 127/150/1 128/153/1 105/155/1
f 129/156/1 130/157/1 123/158/1 108/159/1
f 131/160/1 129/156/1 108/159/1 107/161/1
f 47/162/1 132/163/1 133/164/1 134/165/1
f 48/166/1 47/162/1 134/165/1 135/167/1
f 97/168/1 126/146/1 109/149/1 98/169/1
f 113/170/14 132/171/14 47/47/14 46/46/14
f 71/172/14 111/173/14 127/174/14 99/175/14
f 103/176/14 102/177/14 126/178/14 122/179/14
f 92/180/34 134/181/34 133/182/34 93/183/34
f 64/184/14 130/185/14 129/186/14 65/187/14
f 106/188/34 105/189/34 128/190/34 50/50/34
f 50/50/34 128/190/34 110/191/34 51/51/34
f 99/175/14 127/174/14 104/192/14 89/193/14
f 122/179/14 126/178/14 97/194/14 96/195/14
f 49/196/32 48/197/32 135/198/32 74/199/32
f 74/200/34 135/201/34 134/181/34 92/180/34
f 57/202/34 98/203/34 109/118/34 58/117/34
f 114/204/32 131/205/32 107/206/32 88/207/32
f 90/208/33 123/209/33 130/210/33 64/211/33
f 93/212/33 133/213/33 132/214/33 113/215/33
f 65/187/14 129/186/14 131/216/14 114/217/14
f 95/98/1 103/218/1 122/139/1
f 103/218/38 78/81/39 85/88/39 68/70/39 93/219/40
f 78/81/1 103/218/1 95/98/1
f 85/88/1 80/83/1 94/97/1 68/70/1
f 82/85/1 72/74/1 73/75/1 83/86/1
f 67/69/1 93/96/1 68/70/1
f 94/97/1 80/83/1 81/84/1 2/2/1
f 2/2/1 81/84/1 82/85/1 3/3/1
f 136/220/41 120/135/41 121/138/41 137/221/41
f 138/222/42 34/34/42 33/33/42 139/223/42
f 37/37/43 140/224/43 141/225/43 38/38/43
f 41/41/44 25/226/44 24/227/44 42/42/44
f 142/228/45 143/229/45 144/230/45 145/231/45
f 146/232/34 106/233/34 50/234/34 58/235/34 100/236/34 147/237/34 125/238/34 124/239/34
f 148/240/46 149/241/46 150/242/46 151/243/46
f 147/237/33 100/236/33 103/244/33 93/245/33 113/126/33 112/125/33 151/246/33 150/247/33
f 115/130/32 114/129/32 88/248/32 89/249/32 106/233/32 146/232/32 119/250/32 118/251/32
f 148/240/47 152/252/47 153/253/47 149/241/47
f 154/254/48 10/10/48 9/9/48 155/255/48
f 156/256/49 157/257/49 158/258/49 159/259/49
f 160/260/50 153/253/50 152/252/50 161/261/50
f 162/262/51 14/14/51 13/13/51 163/263/51
f 5/5/52 158/258/52 157/257/52 6/6/52
f 45/45/53 26/26/53 29/29/53 44/44/53
f 145/231/54 160/260/54 161/261/54 142/228/54
f 139/223/55 154/254/55 155/255/55 138/222/55
f 164/264/56 162/262/56 163/263/56 165/265/56
f 166/266/57 144/230/57 143/229/57 167/267/57
f 39/39/58 166/266/58 167/267/58 36/36/58
f 137/221/59 32/32/59 35/35/59 136/220/59
f 43/43/60 30/30/60 31/31/60 40/40/60
f 165/265/61 28/28/61 27/27/61 164/264/61
f 116/131/62 115/130/62 118/251/62
f 151/246/63 112/125/63 117/132/63
f 119/250/64 146/232/64 124/239/64
f 125/238/65 147/237/65 150/247/65
f 25/25/66 20/268/66 19/269/66 22/22/66
f 23/23/67 141/270/67 140/271/67 24/24/67
f 37/37/68 42/272/68 24/273/68 140/224/68
f 20/20/69 25/274/69 41/275/69 21/21/69
f 22/276/70 19/19/70 18/18/70 121/277/70
f 120/278/71 38/38/71 141/225/71 23/279/71
f 153/253/72 9/280/72 8/281/72 149/241/72
f 12/12/73 11/282/73 10/283/73 13/13/73
f 156/284/74 15/15/74 14/14/74 157/285/74
f 158/286/75 152/252/75 148/240/75 159/287/75
f 15/15/76 156/284/76 116/288/76 118/133/76
f 151/243/77 117/289/77 159/287/77 148/240/77
f 11/282/78 12/12/78 119/134/78 124/290/78
f 125/291/79 150/242/79 149/241/79 8/281/79
f 163/263/80 154/292/80 139/293/80 165/265/80
f 145/231/81 138/294/81 155/295/81 160/260/81
f 6/296/82 162/262/82 164/264/82 7/297/82
f 4/298/83 142/228/83 161/261/83 5/299/83
f 33/300/84 28/28/84 165/265/84 139/293/84
f 7/297/85 164/264/85 27/27/85 16/301/85
f 152/252/86 158/286/86 5/299/86 161/261/86
f 162/262/87 6/296/87 157/285/87 14/14/87
f 154/292/88 163/263/88 13/13/88 10/283/88
f 142/228/89 4/298/89 17/302/89 143/229/89
f 9/280/90 153/253/90 160/260/90 155/295/90
f 138/294/91 145/231/91 144/230/91 34/303/91
f 29/29/92 32/304/92 137/305/92 44/44/92
f 39/39/93 136/306/93 35/307/93 166/266/93
f 31/308/94 26/26/94 45/45/94 40/309/94
f 43/310/95 36/36/95 167/267/95 30/311/95
f 16/301/96 27/27/96 26/26/96 31/308/96
f 32/304/97 29/29/97 28/28/97 33/300/97
f 166/266/98 35/307/98 34/303/98 144/230/98
f 121/277/99 18/18/99 44/44/99 137/305/99
f 40/309/100 45/45/100 21/21/100 41/275/100
f 38/38/101 120/278/101 136/306/101 39/39/101
f 30/311/102 167/267/102 143/229/102 17/302/102
f 42/272/103 37/37/103 36/36/103 43/310/103
f 156/256/104 159/259/104 117/312/104 116/313/104
