# Blender v2.93.5 OBJ File: 'CONSOLE.blend'
# www.blender.org
mtllib CONSOLE.mtl
o Cube
v 0.457123 0.709764 -0.097238
v 0.457123 -0.001355 -0.097238
v 0.457123 0.912891 0.097238
v 0.360829 0.539556 0.134102
v -0.515907 0.708431 -0.080603
v -0.457123 -0.001355 -0.097238
v -0.398339 0.882204 0.108026
v -0.457123 -0.001355 0.097238
v 0.457123 -0.001355 0.117289
v 0.457123 0.078538 0.117289
vt 0.190345 0.114948
vt 0.178448 0.227224
vt 0.074335 0.210839
vt 0.082066 0.111961
vt 0.838711 0.823519
vt 0.863269 0.961725
vt 0.580270 0.930133
vt 0.566385 0.635923
vt 0.084667 0.312904
vt 0.190345 0.309235
vt 0.532601 0.467773
vt 0.659135 0.341239
vt 0.898398 0.478205
vt 0.659135 0.594307
vt 0.007328 0.551796
vt 0.226232 0.640367
vt 0.178012 0.947606
vt 0.037851 0.955256
vt 0.518811 0.945451
vt 0.281772 0.966013
vt 0.282668 0.641855
vt 0.518811 0.641855
vt 0.609085 0.145074
vt 0.746422 0.276153
vt 0.596107 0.293680
vt 0.455694 0.007634
vt 0.455694 0.555271
vt 0.271925 0.268160
vt 0.237863 0.267235
vt 0.000000 0.000000
vt 0.000000 0.000000
vt 0.000000 0.000000
vt 0.552168 0.031552
vt 0.855764 0.000252
vt 0.855764 0.335149
vn -0.0230 0.7162 -0.6975
vn -0.0237 0.0237 0.9994
vn -0.9553 -0.0051 0.2955
vn 0.1678 -0.5912 0.7889
vn 0.9385 -0.0719 0.3378
vn -0.0088 0.0113 -0.9999
vn 0.1944 -0.3563 0.9139
vn 0.0740 -0.9346 0.3480
vn -1.0000 0.0000 0.0000
vn 0.0219 0.0000 -0.9998
vn 0.0000 -1.0000 0.0000
vn 0.0000 1.0000 0.0000
usemtl Material.001
s off
f 1/1/1 5/2/1 7/3/1 3/4/1
f 4/5/2 3/6/2 7/7/2 8/8/2
f 8/9/3 7/3/3 5/2/3 6/10/3
f 6/11/4 2/12/4 4/13/4 8/14/4
f 2/15/5 1/16/5 3/17/5 4/18/5
f 6/19/6 5/20/6 1/21/6 2/22/6
f 2/23/7 4/24/7 8/25/7
f 8/26/8 2/27/8 10/28/8
f 9/29/9 10/28/9 2/27/9
f 8/26/10 10/28/10 9/29/10
f 6/30/11 2/31/11 8/32/11
f 8/33/12 9/34/12 2/35/12
