# Blender v2.93.5 OBJ File: 'FRONT.blend'
# www.blender.org
mtllib FRONT.mtl
o Cube.002
v -1.955233 3.889681 0.764838
v -1.955233 5.379741 0.764838
v -1.955233 3.889681 -0.764838
v -1.955233 5.379741 -0.764838
v 2.025901 3.889681 0.764838
v 2.025901 5.379741 0.764838
v 2.025901 3.889681 -0.764838
v 2.025901 5.379741 -0.764838
v 3.890507 5.684989 1.000000
v 3.890507 -0.016716 1.000000
v 3.890507 5.684989 -1.000000
v 3.890507 -0.016716 -1.000000
v 1.890507 5.684989 1.000000
v 1.890507 -0.016716 1.000000
v 1.890507 5.684989 -1.000000
v 1.890507 -0.016716 -1.000000
v -3.877713 0.088909 1.000000
v -3.877713 5.790615 1.000000
v -3.877713 0.088909 -1.000000
v -3.877713 5.790615 -1.000000
v -1.877714 0.088909 1.000000
v -1.877714 5.790615 1.000000
v -1.877714 0.088909 -1.000000
v -1.877714 5.790615 -1.000000
vt 0.242843 0.842927
vt 0.196442 0.796526
vt 0.242843 0.750125
vt 0.289244 0.796526
vt 0.767058 0.783956
vt 0.767058 0.893871
vt 0.385197 0.893871
vt 0.385197 0.783956
vt 0.150041 0.935728
vt 0.103641 0.889327
vt 0.150041 0.842927
vt 0.196442 0.889327
vt 0.289244 0.889327
vt 0.242843 0.935728
vt 0.103641 0.796526
vt 0.150041 0.750125
vt 0.115353 0.209230
vt 0.092043 0.232540
vt 0.031375 0.171873
vt 0.054685 0.148563
vt 0.353573 0.447450
vt 0.531125 0.625002
vt 0.507815 0.648312
vt 0.330262 0.470760
vt 0.152710 0.648312
vt 0.092043 0.587645
vt 0.269595 0.410093
vt 0.292905 0.386782
vt 0.470458 0.209230
vt 0.531125 0.269897
vt 0.654233 0.269595
vt 0.831786 0.092043
vt 0.892453 0.152710
vt 0.714901 0.330262
vt 0.892453 0.507815
vt 0.869143 0.531125
vt 0.691590 0.353573
vt 0.514038 0.531125
vt 0.453371 0.470458
vt 0.630923 0.292905
vt 0.453371 0.115353
vt 0.476681 0.092043
vt 0.392703 0.054685
vt 0.416014 0.031375
vn -1.0000 0.0000 0.0000
vn 0.0000 0.0000 -1.0000
vn 1.0000 0.0000 0.0000
vn 0.0000 0.0000 1.0000
vn 0.0000 -1.0000 0.0000
vn 0.0000 1.0000 0.0000
usemtl Material.001
s off
f 1/1/1 2/2/1 4/3/1 3/4/1
f 3/5/2 4/6/2 8/7/2 7/8/2
f 7/9/3 8/10/3 6/11/3 5/12/3
f 5/12/4 6/11/4 2/2/4 1/1/4
f 3/13/5 7/14/5 5/12/5 1/1/5
f 8/15/6 4/16/6 2/2/6 6/11/6
f 9/17/5 13/18/5 15/19/5 11/20/5
f 12/21/4 11/22/4 15/23/4 16/24/4
f 16/24/3 15/25/3 13/26/3 14/27/3
f 14/27/6 10/28/6 12/21/6 16/24/6
f 10/28/1 9/29/1 11/30/1 12/21/1
f 14/27/2 13/18/2 9/17/2 10/28/2
f 17/31/1 18/32/1 20/33/1 19/34/1
f 19/34/2 20/35/2 24/36/2 23/37/2
f 23/37/3 24/38/3 22/39/3 21/40/3
f 21/40/4 22/41/4 18/42/4 17/31/4
f 19/34/5 23/37/5 21/40/5 17/31/5
f 24/43/6 20/44/6 18/42/6 22/41/6
